<?xml version="1.0" standalone="no"?>
<!DOCTYPE svg PUBLIC "-//W3C//DTD SVG 20010904//EN"
 "http://www.w3.org/TR/2001/REC-SVG-20010904/DTD/svg10.dtd">
<svg version="1.0" xmlns="http://www.w3.org/2000/svg"
 width="323.000000pt" height="323.000000pt" viewBox="0 0 323.000000 323.000000"
 preserveAspectRatio="xMidYMid meet">
<metadata>
Created by potrace 1.11, written by Peter Selinger 2001-2013
</metadata>
<g transform="translate(0.000000,323.000000) scale(0.100000,-0.100000)"
fill="#000000" stroke="none">
<path d="M1586 3152 c-12 -19 -45 -119 -47 -142 -3 -31 9 -70 22 -70 15 0 10
-28 -7 -38 -12 -7 -17 -27 -19 -78 -2 -38 -6 -130 -10 -204 -6 -120 -9 -155
-14 -182 0 -5 -12 -8 -26 -8 -21 0 -25 5 -26 33 0 17 -2 46 -4 62 -3 17 -7 57
-9 90 -13 157 -18 219 -21 234 -2 9 -4 24 -4 35 -1 12 -6 16 -16 12 -23 -8
-30 21 -11 43 20 23 20 35 -3 100 -10 30 -18 67 -17 83 5 66 -29 -32 -39 -113
-4 -37 -1 -51 16 -73 20 -25 20 -56 0 -56 -5 0 -8 -15 -6 -32 6 -57 19 -389
16 -414 0 -6 -25 -12 -55 -13 l-55 -2 3 246 c2 233 1 246 -16 242 -23 -6 -25
25 -2 44 13 10 15 23 9 59 -3 25 -10 68 -13 95 l-7 50 -23 -62 c-29 -76 -32
-131 -9 -148 21 -15 22 -45 2 -45 -8 0 -15 -8 -16 -17 0 -10 -2 -25 -3 -33 -2
-8 -7 -91 -11 -185 -6 -148 -9 -188 -14 -241 0 -6 -11 -11 -23 -11 -51 1 -107
-16 -128 -38 -37 -39 -48 -105 -45 -265 2 -128 0 -147 -16 -165 -16 -18 -25
-43 -28 -77 -1 -5 -12 -8 -25 -8 -36 0 -73 -42 -91 -103 -9 -30 -15 -59 -14
-63 5 -31 -2 -56 -16 -51 -24 10 -30 -14 -7 -32 16 -13 21 -32 26 -97 4 -45 9
-95 12 -110 3 -15 -2 -42 -10 -58 -8 -17 -17 -38 -20 -47 -3 -11 -20 -18 -51
-21 -51 -6 -64 -18 -98 -88 -19 -39 -21 -63 -22 -180 0 -74 3 -156 7 -182 l7
-48 -40 0 c-42 0 -96 -23 -116 -49 -16 -21 -7 -51 22 -77 l23 -21 -59 -6 c-78
-7 -123 -33 -127 -75 -6 -60 31 -92 122 -106 50 -8 55 -13 23 -21 -59 -15 -80
-94 -38 -139 42 -44 166 -56 271 -26 24 7 29 5 34 -13 9 -38 66 -96 113 -117
114 -50 301 -43 414 16 24 12 33 10 98 -21 104 -50 195 -76 292 -82 109 -7
171 12 240 73 l50 44 37 -18 c66 -33 132 -45 255 -46 110 -1 127 1 167 23 63
33 93 68 87 100 l-6 26 145 3 c156 2 190 11 220 56 20 31 21 79 2 108 -14 21
-13 23 34 45 63 29 87 76 63 123 -22 43 -91 73 -172 74 -29 0 -31 2 -26 32 7
43 -36 90 -102 112 l-50 17 -1 140 c0 115 -4 153 -23 213 -26 86 -75 148 -124
157 -60 11 -72 13 -79 14 -5 1 -8 6 -8 13 0 6 -7 19 -15 28 -11 12 -15 47 -16
140 -1 69 2 137 6 153 4 15 3 33 -2 40 -5 6 -10 28 -12 47 -5 60 -44 114 -90
125 -19 5 -32 20 -50 58 -23 47 -25 66 -28 210 -4 223 -16 258 -98 275 l-39 8
1 64 c2 150 4 338 4 378 -1 38 -3 43 -20 37 -25 -7 -23 16 4 45 17 18 17 26 7
88 -7 37 -13 78 -15 92 -1 19 -7 11 -24 -35 -32 -85 -34 -115 -11 -153 19 -31
19 -32 1 -40 -20 -8 -19 -2 -28 -172 -4 -69 -8 -143 -10 -165 -1 -22 -3 -64
-4 -93 -1 -50 -2 -53 -26 -49 -13 1 -26 5 -28 7 -3 3 -7 48 -11 100 -3 52 -9
129 -13 170 -9 107 -11 131 -12 163 -1 24 -4 27 -21 22 -24 -8 -25 4 -3 43 16
27 16 32 -2 88 -10 32 -18 73 -17 89 2 39 -11 18 -30 -50 -19 -63 -16 -125 6
-137 20 -11 21 -48 2 -48 -11 0 -13 -20 -10 -102 2 -57 5 -157 6 -223 l3 -119
-55 -2 c-95 -4 -87 -24 -85 242 2 225 1 235 -17 231 -23 -6 -25 25 -2 44 13
10 15 23 9 59 -4 25 -7 69 -8 97 -2 55 -3 58 -11 45z"/>
</g>
</svg>
